<?xml version="1.0" encoding="UTF-8" standalone="no"?>
<!-- Created with Inkscape (http://www.inkscape.org/) -->

<svg
   xmlns:dc="http://purl.org/dc/elements/1.1/"
   xmlns:cc="http://creativecommons.org/ns#"
   xmlns:rdf="http://www.w3.org/1999/02/22-rdf-syntax-ns#"
   xmlns:svg="http://www.w3.org/2000/svg"
   xmlns="http://www.w3.org/2000/svg"
   xmlns:sodipodi="http://sodipodi.sourceforge.net/DTD/sodipodi-0.dtd"
   xmlns:inkscape="http://www.inkscape.org/namespaces/inkscape"
   width="30.318481"
   height="33.403557"
   viewBox="0 0 8.0217648 8.8380241"
   version="1.1"
   id="svg835"
   inkscape:version="0.92.4 5da689c313, 2019-01-14"
   sodipodi:docname="comisaria.svg">
  <defs
     id="defs829" />
  <sodipodi:namedview
     id="base"
     pagecolor="#ffffff"
     bordercolor="#666666"
     borderopacity="1.0"
     inkscape:pageopacity="0.0"
     inkscape:pageshadow="2"
     inkscape:zoom="7.9195959"
     inkscape:cx="-1.4878164"
     inkscape:cy="20.627326"
     inkscape:document-units="mm"
     inkscape:current-layer="layer1"
     showgrid="false"
     fit-margin-top="0"
     fit-margin-left="0"
     fit-margin-right="0"
     fit-margin-bottom="0"
     units="px"
     inkscape:window-width="1920"
     inkscape:window-height="995"
     inkscape:window-x="0"
     inkscape:window-y="0"
     inkscape:window-maximized="1" />
  <metadata
     id="metadata832">
    <rdf:RDF>
      <cc:Work
         rdf:about="">
        <dc:format>image/svg+xml</dc:format>
        <dc:type
           rdf:resource="http://purl.org/dc/dcmitype/StillImage" />
        <dc:title></dc:title>
      </cc:Work>
    </rdf:RDF>
  </metadata>
  <g
     inkscape:label="Layer 1"
     inkscape:groupmode="layer"
     id="layer1"
     transform="translate(-118.4534,-175.40837)">
    <g
       id="g52"
       transform="matrix(0.0479386,0,0,0.0479386,129.45992,173.37535)"
       style="stroke-width:12.98671722"
       inkscape:export-xdpi="89"
       inkscape:export-ydpi="89"
       inkscape:export-filename="/home/salva/Docs/PAC/NM3/Clase07/comisaria.png">
      <path
         transform="matrix(0.26458333,0,0,0.26458333,0,81.1)"
         id="path37"
         d="m -557.32031,-121.58398 c -10.63736,0.025 -30.27345,1.72957 -46.75,12.28515 -8.02432,5.14071 -45.45745,24.242984 -59.59961,27.273439 -14.14212,3.03046 -60.60866,-11.111734 -72.73047,-15.152343 -12.12181,-4.040606 -20.20391,18.182837 -23.23438,25.253906 -3.03046,7.071069 -15.15157,19.192988 -22.22265,25.253906 -7.07104,6.060915 -43.43711,25.252761 -44.44727,33.333984 -1.01015,8.08122 14.1422,41.41723 20.20313,53.539063 6.06089,12.121829 14.2195,49.216373 13.13281,63.638675 -1.09089,14.47767 -11.38039,56.04133 -28.28516,82.83398 -15.10707,23.94342 -16.61127,70.38108 -21.21289,98.99414 -4.90718,30.51341 23.02365,90.26892 39.39649,101.01563 11.34032,7.44347 52.71153,48.89998 71.7207,52.52734 16.16243,5.05077 98.93363,14.36279 113.13672,18.18359 15.02026,4.04062 44.47608,23.23291 66.66992,52.52735 22.19384,-29.29444 51.64966,-48.48673 66.66992,-52.52735 14.20309,-3.8208 96.97428,-13.13282 113.13672,-18.18359 19.00917,-3.62736 60.38041,-45.08387 71.72071,-52.52734 16.37286,-10.74671 44.30369,-70.50222 39.39648,-101.01563 -4.60159,-28.61306 -6.10582,-75.05072 -21.21289,-98.99414 -16.90477,-26.79265 -27.19428,-68.35631 -28.28516,-82.83398 -1.0867,-14.422302 7.07191,-51.516846 13.13281,-63.638675 6.06093,-12.121833 21.21329,-45.457843 20.20313,-53.539063 -1.01015,-8.081223 -37.37619,-27.273069 -44.44727,-33.333984 -7.07106,-6.060918 -19.19219,-18.182837 -22.22265,-25.253906 -3.03045,-7.071069 -11.11255,-29.294512 -23.23438,-25.253906 -12.12183,4.040609 -58.58834,18.182803 -72.73047,15.152343 -14.14216,-3.030455 -51.57529,-22.132729 -59.5996,-27.273439 -20.27883,-12.99149 -45.34439,-12.57602 -52.52735,-12.12305 -1.3468,-0.0849 -3.32257,-0.16787 -5.77734,-0.1621 z"
         style="fill:#ffffff;stroke:#00653b;stroke-width:49.08365631;stroke-linecap:butt;stroke-linejoin:miter;stroke-opacity:1"
         inkscape:connector-curvature="0" />
      <path
         inkscape:connector-curvature="0"
         style="fill:#00653b;fill-opacity:1;stroke:#00653b;stroke-width:12.98671722;stroke-linecap:butt;stroke-linejoin:miter;stroke-opacity:1"
         d="m -146.6006,95.772325 c -1.23644,0.0029 -3.51884,0.201037 -5.434,1.427967 -0.93271,0.597532 -5.28376,2.817888 -6.92758,3.170138 -1.64381,0.35224 -7.04486,-1.291578 -8.45384,-1.761239 -1.40898,-0.469661 -2.34841,2.113489 -2.70066,2.935389 -0.35224,0.82191 -1.76114,2.23091 -2.58305,2.9354 -0.8219,0.70449 -5.04892,2.93526 -5.16634,3.87458 -0.11741,0.93932 1.64383,4.81414 2.34831,6.22313 0.70449,1.40898 1.65282,5.72068 1.5265,7.39705 -0.1268,1.68282 -1.3228,6.51398 -3.28773,9.62824 -1.75597,2.78306 -1.93082,8.18075 -2.46568,11.5066 -0.57039,3.54673 2.67615,10.49243 4.57925,11.74158 1.31815,0.86519 6.12694,5.6839 8.33648,6.10552 1.87865,0.58708 11.49957,1.66947 13.15047,2.11358 1.74588,0.46966 5.16969,2.70048 7.74939,6.10553 2.57971,-3.40505 6.00351,-5.63587 7.7494,-6.10553 1.6509,-0.44411 11.27183,-1.5265 13.15048,-2.11358 2.20953,-0.42162 7.01833,-5.24033 8.33647,-6.10552 1.9031,-1.24915 5.14965,-8.19485 4.57926,-11.74158 -0.53487,-3.32585 -0.70971,-8.72354 -2.46569,-11.5066 -1.96493,-3.11426 -3.16093,-7.94542 -3.28773,-9.62824 -0.12631,-1.67637 0.82201,-5.98807 1.5265,-7.39705 0.70449,-1.40899 2.46573,-5.28381 2.34831,-6.22313 -0.11741,-0.93932 -4.34443,-3.17009 -5.16634,-3.87458 -0.8219,-0.70449 -2.23081,-2.11349 -2.58305,-2.9354 -0.35225,-0.8219 -1.29167,-3.40505 -2.70066,-2.935389 -1.40898,0.469661 -6.81002,2.113479 -8.45384,1.761239 -1.64381,-0.35225 -5.99486,-2.572606 -6.92757,-3.170138 -2.35712,-1.510068 -5.27062,-1.461776 -6.10554,-1.409125 -0.15654,-0.0099 -0.38619,-0.01951 -0.67152,-0.01884 z"
         id="path48" />
    </g>
  </g>
</svg>
